<?xml version="1.0" encoding="UTF-8"?>
<svg xmlns="http://www.w3.org/2000/svg" xmlns:xlink="http://www.w3.org/1999/xlink" width="3750" height="3225" viewBox="0 0 3750 3225">

<path fill-rule="nonzero" fill="rgb(82.03125%, 77.734375%, 53.709412%)" fill-opacity="1" d="M 578.730469 656.089844 L 3206.878906 656.089844 C 3331.660156 656.089844 3432.121094 756.550781 3432.121094 881.339844 L 3432.121094 2764.242188 C 3432.121094 2889.027344 3331.660156 2989.488281 3206.878906 2989.488281 L 578.730469 2989.488281 C 453.945312 2989.488281 353.484375 2889.027344 353.484375 2764.242188 L 353.484375 881.339844 C 353.484375 756.550781 453.945312 656.089844 578.730469 656.089844 Z M 578.730469 656.089844 "/>
<path fill-rule="nonzero" fill="rgb(89.84375%, 87.109375%, 72.851562%)" fill-opacity="1" d="M 2995.390625 656.089844 L 902.980469 2989.484375 L 1170.359375 2989.484375 L 3045.089844 656.089844 Z M 2995.390625 656.089844 "/>
<path fill-rule="nonzero" fill="rgb(76.171875%, 70.117188%, 38.426208%)" fill-opacity="1" d="M 578.730469 656.089844 C 453.945312 656.089844 353.488281 756.550781 353.488281 881.339844 L 353.488281 1619.398438 L 2262.089844 656.089844 Z M 3430.140625 851.75 L 2531.519531 2989.484375 L 3206.871094 2989.484375 C 3331.660156 2989.484375 3432.128906 2889.027344 3432.128906 2764.242188 L 3432.128906 881.339844 C 3432.128906 871.300781 3431.410156 861.429688 3430.140625 851.75 Z M 3430.140625 851.75 "/>
<path fill-rule="nonzero" fill="rgb(89.84375%, 87.109375%, 72.851562%)" fill-opacity="1" d="M 2809.898438 656.089844 L 353.488281 2089.960938 L 353.488281 2764.242188 C 353.488281 2840.015625 390.5625 2906.777344 447.601562 2947.566406 L 2925.519531 656.089844 Z M 2809.898438 656.089844 "/>
<path fill-rule="nonzero" fill="rgb(100%, 100%, 100%)" fill-opacity="1" d="M 3427.011719 466.589844 C 3385.539062 468.730469 3285.121094 550.460938 3227.730469 616.039062 C 3221.109375 623.609375 3214.710938 632.339844 3208.539062 641.859375 C 3189.738281 634.96875 3171.679688 631.851562 3168.308594 643.441406 C 3163.710938 659.320312 3173.929688 677.609375 3182.410156 689.269531 C 3182.101562 689.929688 3181.808594 690.621094 3181.5 691.289062 C 3159.851562 672.261719 3111.558594 634.488281 3095.398438 660.53125 C 3082.359375 681.53125 3122.140625 725.800781 3154.421875 756.539062 C 3131.25 819.640625 3117.648438 876.03125 3117.648438 876.03125 C 3117.648438 876.03125 2752.25 1346.820312 2738.199219 1386.640625 C 2727.449219 1417.089844 2692.328125 1526.761719 2673.039062 1587.101562 C 2643.269531 1607.789062 2537.980469 1682.25 2526.519531 1710.878906 C 2524.46875 1716.03125 2523.769531 1719.429688 2523.660156 1721.789062 C 2519.449219 1719.28125 2508.710938 1717.210938 2483.46875 1720.820312 C 2483.46875 1720.820312 2468.558594 1775.46875 2452 1768.851562 C 2438.328125 1763.390625 2437.609375 1721.320312 2415 1709.53125 L 2422.179688 1571.761719 C 2422.179688 1571.761719 2431.328125 1550.609375 2443.320312 1522.480469 C 2453.921875 1529.941406 2467.511719 1535.769531 2481.808594 1532.011719 C 2513.28125 1523.730469 2538.121094 1426.011719 2524.871094 1416.070312 C 2519.828125 1412.300781 2506.910156 1407.570312 2492.828125 1403.148438 C 2502.460938 1378.839844 2509.511719 1359.789062 2509.96875 1354.800781 C 2510.570312 1348.179688 2512.101562 1322.769531 2513.730469 1294.738281 C 2535.679688 1255.898438 2546.960938 1191.738281 2548.058594 1161.019531 C 2549.71875 1114.640625 2538.121094 1050.050781 2538.121094 1050.050781 C 2562.96875 1028.519531 2587.808594 1010.300781 2587.808594 1010.300781 L 2513.28125 998.699219 C 2531.5 983.800781 2567.929688 934.109375 2567.929688 934.109375 L 2465.25 922.519531 L 2516.589844 891.039062 C 2516.589844 891.039062 2445.371094 889.390625 2364.21875 882.769531 C 2283.058594 876.140625 2213.5 930.800781 2213.5 930.800781 C 2213.5 930.800781 2148.898438 947.359375 2127.378906 953.988281 C 2105.839844 960.609375 2009.789062 1094.761719 1999.851562 1127.878906 C 1993.628906 1148.628906 1979.609375 1220 1970 1270.480469 C 1963.191406 1269.929688 1956.828125 1272.058594 1951.820312 1278.609375 C 1930.988281 1305.851562 1928.761719 1415.269531 1996.148438 1405.828125 C 2002.511719 1445.921875 2010.171875 1489.671875 2015.378906 1518.789062 C 1995.839844 1510.828125 1973.269531 1507.050781 1947.878906 1506.960938 C 1946.921875 1506.960938 1945.941406 1506.960938 1944.980469 1506.960938 C 1883.949219 1507.410156 1807.140625 1528.398438 1718.289062 1561.820312 C 1537.761719 1629.730469 1297.601562 1806.949219 1233.011719 1861.609375 C 1168.410156 1916.261719 811.5 2108.371094 811.5 2108.371094 C 811.5 2108.371094 809.242188 2110.660156 805.898438 2114.769531 C 804.785156 2116.140625 803.546875 2117.71875 802.234375 2119.480469 C 799.609375 2123 796.679688 2127.261719 793.78125 2132.109375 C 790.882812 2136.960938 788.023438 2142.410156 785.546875 2148.320312 C 784.308594 2151.28125 783.164062 2154.351562 782.160156 2157.519531 C 781.660156 2159.101562 781.195312 2160.699219 780.769531 2162.328125 C 780.34375 2163.960938 779.953125 2165.609375 779.609375 2167.28125 C 778.929688 2170.621094 778.433594 2174.050781 778.160156 2177.53125 C 778.027344 2179.269531 777.9375 2181.03125 777.929688 2182.800781 C 777.914062 2184.570312 777.972656 2186.351562 778.085938 2188.140625 C 778.3125 2191.730469 778.800781 2195.359375 779.605469 2199.019531 C 780.007812 2200.851562 780.492188 2202.679688 781.054688 2204.519531 C 781.617188 2206.359375 782.265625 2208.210938 783.003906 2210.058594 C 783.742188 2211.910156 784.574219 2213.75 785.496094 2215.601562 C 786.417969 2217.449219 787.429688 2219.308594 788.546875 2221.160156 C 789.660156 2223 790.878906 2224.851562 792.199219 2226.6875 C 793.519531 2228.527344 794.941406 2230.367188 796.476562 2232.199219 C 796.476562 2232.199219 986.195312 2168.960938 1072.859375 2227.511719 C 1091.371094 2240.015625 1110.410156 2249.929688 1130.261719 2257.535156 L 804.539062 2346.046875 C 804.304688 2345.65625 804.050781 2345.226562 804.050781 2345.226562 C 803.085938 2343.617188 800.996094 2343.105469 799.398438 2344.089844 C 798.800781 2344.457031 798.328125 2345.003906 798.054688 2345.65625 C 790.726562 2342.566406 742.046875 2321.992188 685.203125 2296.335938 C 739.296875 2279.933594 785.832031 2264.066406 794.113281 2255.785156 C 815.644531 2234.253906 796.480469 2232.199219 796.480469 2232.199219 C 794.941406 2230.367188 793.519531 2228.53125 792.199219 2226.6875 C 790.878906 2224.851562 789.664062 2223 788.546875 2221.160156 C 787.433594 2219.308594 786.417969 2217.449219 785.496094 2215.609375 C 784.574219 2213.75 783.742188 2211.910156 783.003906 2210.058594 C 782.269531 2208.210938 781.621094 2206.359375 781.054688 2204.519531 C 780.492188 2202.679688 780.011719 2200.851562 779.605469 2199.019531 C 778.800781 2195.359375 778.300781 2191.730469 778.078125 2188.140625 C 777.964844 2186.351562 777.917969 2184.570312 777.941406 2182.800781 C 777.957031 2181.03125 778.03125 2179.269531 778.171875 2177.53125 C 778.445312 2174.050781 778.941406 2170.621094 779.621094 2167.28125 C 779.964844 2165.609375 780.355469 2163.960938 780.78125 2162.328125 C 781.207031 2160.699219 781.671875 2159.101562 782.175781 2157.519531 C 783.175781 2154.351562 784.320312 2151.28125 785.558594 2148.320312 C 788.035156 2142.410156 790.894531 2136.960938 793.792969 2132.109375 C 796.691406 2127.261719 799.621094 2123 802.246094 2119.480469 C 803.558594 2117.71875 804.796875 2116.140625 805.910156 2114.769531 C 809.253906 2110.660156 811.511719 2108.371094 811.511719 2108.371094 C 811.511719 2108.371094 786.671875 2098.449219 775.078125 2098.449219 C 765.554688 2098.449219 575.242188 2166.839844 504.722656 2192.300781 C 481.582031 2161.28125 452.171875 2119.761719 452.171875 2119.761719 C 427.1875 2116.351562 402.195312 2108.011719 377.214844 2131.46875 C 352.230469 2134.128906 327.25 2130.910156 302.265625 2157.238281 C 269.007812 2155.769531 241.179688 2163.621094 229.652344 2199.398438 C 199.878906 2195.800781 192.710938 2211.96875 187.5 2229.855469 C 187.5 2229.855469 224.96875 2361.019531 239.023438 2393.8125 C 250.796875 2421.292969 303.210938 2443.609375 320.042969 2450.195312 C 320.996094 2451.539062 322.953125 2454.308594 322.953125 2454.308594 C 324.03125 2455.816406 326.128906 2456.171875 327.640625 2455.097656 C 328.675781 2454.363281 329.210938 2453.109375 329.019531 2451.851562 L 356.132812 2447.675781 L 394.980469 2443.375 C 394.984375 2443.5625 395.007812 2443.75 395.046875 2443.933594 C 395.554688 2445.722656 397.417969 2446.761719 399.207031 2446.25 C 399.207031 2446.25 399.945312 2446.039062 401.179688 2445.660156 C 416.625 2460.046875 636.46875 2663.003906 744.949219 2658.484375 C 836.355469 2654.675781 1135.210938 2561.070312 1256.359375 2516.128906 C 1272.980469 2546.640625 1292.199219 2568.835938 1314.179688 2575.433594 C 1314.179688 2575.433594 1423.488281 2532.363281 1443.359375 2532.363281 C 1462.339844 2532.363281 1523.648438 2526.589844 1529.429688 2526.042969 C 1529.429688 2526.046875 1529.449219 2526.195312 1529.449219 2526.195312 C 1529.699219 2528.039062 1531.398438 2529.335938 1533.238281 2529.082031 C 1535.710938 2547.34375 1581.789062 2892.726562 1555.980469 2989.484375 L 2827.96875 2989.484375 L 2815.039062 2850.410156 C 2816.800781 2850.246094 2818.128906 2848.738281 2818.089844 2846.96875 C 2817.949219 2841.949219 2817.628906 2836.46875 2817.171875 2830.628906 C 2824.148438 2784.199219 2884.101562 2383.816406 2880.96875 2336.933594 C 2878.628906 2301.703125 2921.199219 2040.058594 2930.851562 1857.691406 C 2933.449219 1850.210938 2934.96875 1845.71875 2934.96875 1845.71875 C 2934.96875 1845.71875 2933.609375 1844.21875 2931.589844 1841.988281 C 2931.609375 1841.308594 2931.628906 1840.640625 2931.679688 1839.960938 C 2935.648438 1830.660156 2938.378906 1823.371094 2939.660156 1819.960938 C 2946.679688 1801.210938 2978.441406 1573.789062 3011.230469 1517.570312 C 3044.019531 1461.359375 3265.570312 992.339844 3265.570312 992.339844 C 3265.570312 992.339844 3338.96875 912.871094 3353.03125 889.441406 C 3367.078125 866.019531 3384.679688 815.128906 3412.789062 789.371094 C 3440.898438 763.609375 3424.5 726.121094 3424.5 726.121094 C 3424.5 726.121094 3434.339844 701.398438 3447.929688 639.449219 C 3459.160156 588.230469 3546.441406 544.070312 3522.878906 510.628906 C 3513.929688 497.941406 3449.730469 534.660156 3441.5 539.429688 C 3441.488281 539.390625 3441.46875 539.371094 3441.460938 539.339844 C 3441.160156 538.839844 3440.730469 538.441406 3440.230469 538.148438 C 3445.78125 528.128906 3462.859375 492.78125 3440.898438 470.820312 C 3437.679688 467.589844 3432.960938 466.289062 3427.03125 466.589844 Z M 1916.339844 1564.351562 C 1960.601562 1564.398438 1995.128906 1574.570312 2015 1596.859375 L 1988.109375 1786.199219 C 1965.339844 1826.058594 1936.300781 1863.710938 1902.820312 1898.949219 C 1880.488281 1899.480469 1857.859375 1894.289062 1839.859375 1896.910156 C 1807.519531 1901.609375 1790.578125 1927.601562 1774.21875 1942.261719 L 1746.308594 1951.058594 C 1745.210938 1950.691406 1744.078125 1950.261719 1742.929688 1949.699219 C 1741.96875 1949.238281 1740.941406 1948.839844 1739.941406 1948.421875 L 1749.589844 1884.578125 L 1893.050781 1841.230469 C 1894.601562 1840.75 1895.480469 1839.121094 1895.019531 1837.558594 C 1894.539062 1836 1892.898438 1835.121094 1891.339844 1835.589844 L 1750.570312 1878.109375 L 1774.828125 1717.609375 L 1822.769531 1693.351562 L 1803.109375 1833.03125 C 1802.890625 1834.660156 1804.03125 1836.148438 1805.648438 1836.371094 C 1807.269531 1836.609375 1808.789062 1835.488281 1809.019531 1833.871094 L 1829.261719 1690.058594 L 1946.511719 1630.730469 C 1947.980469 1629.988281 1948.570312 1628.199219 1947.828125 1626.738281 C 1947.089844 1625.269531 1945.308594 1624.691406 1943.839844 1625.429688 L 1830.269531 1682.898438 L 1840.5 1610.261719 C 1840.710938 1608.640625 1839.570312 1607.148438 1837.960938 1606.929688 C 1836.339844 1606.691406 1834.828125 1607.808594 1834.578125 1609.429688 L 1823.769531 1686.179688 L 1775.921875 1710.390625 L 1785.800781 1645.058594 C 1786.039062 1643.449219 1784.941406 1641.941406 1783.339844 1641.679688 C 1781.699219 1641.410156 1780.160156 1642.539062 1779.921875 1644.179688 L 1769.410156 1713.691406 L 1680.980469 1758.429688 L 1701.300781 1676.828125 C 1701.71875 1675.238281 1700.75 1673.609375 1699.148438 1673.199219 L 1699.148438 1673.191406 C 1697.53125 1672.769531 1695.890625 1673.769531 1695.511719 1675.390625 L 1673.949219 1762 L 1453.898438 1873.351562 L 1505.53125 1780.359375 L 1625.210938 1720.140625 C 1626.679688 1719.410156 1627.269531 1717.621094 1626.519531 1716.160156 C 1626.171875 1715.46875 1625.558594 1714.949219 1624.820312 1714.710938 C 1624.070312 1714.441406 1623.25 1714.488281 1622.539062 1714.839844 L 1510.660156 1771.109375 L 1538.691406 1720.628906 C 1539.519531 1719.191406 1539.011719 1717.351562 1537.558594 1716.550781 C 1536.859375 1716.171875 1536.03125 1716.089844 1535.269531 1716.320312 L 1535.269531 1716.328125 C 1534.53125 1716.550781 1533.898438 1717.050781 1533.519531 1717.71875 L 1501.261719 1775.828125 L 1427.949219 1812.710938 L 1444.191406 1786.980469 C 1445.058594 1785.601562 1444.648438 1783.78125 1443.28125 1782.910156 C 1441.898438 1782.039062 1440.070312 1782.441406 1439.191406 1783.820312 L 1417.699219 1817.859375 L 1342.648438 1855.609375 C 1341.179688 1856.351562 1340.601562 1858.140625 1341.339844 1859.601562 C 1342.058594 1861.089844 1343.851562 1861.691406 1345.328125 1860.960938 L 1411.519531 1827.660156 L 1349.210938 1926.339844 L 1259.820312 1971.570312 C 1258.351562 1972.308594 1257.761719 1974.101562 1258.5 1975.570312 C 1259.230469 1977.03125 1261.019531 1977.621094 1262.480469 1976.890625 L 1343.019531 1936.121094 L 1212.261719 2143.210938 C 1211.378906 2144.609375 1211.808594 2146.460938 1213.21875 2147.328125 C 1214.609375 2148.191406 1216.429688 2147.78125 1217.308594 2146.410156 L 1353.339844 1930.910156 L 1439.308594 1887.398438 L 1382.769531 1989.230469 L 1343.128906 2001.199219 C 1341.558594 2001.660156 1340.648438 2003.320312 1341.121094 2004.890625 C 1341.601562 2006.46875 1343.269531 2007.351562 1344.839844 2006.859375 L 1378.648438 1996.640625 L 1329.25 2085.609375 C 1245.390625 2142.011719 1171.730469 2197.820312 1171.730469 2197.820312 C 1171.730469 2197.820312 1172.960938 2207.320312 1175.191406 2222.25 C 1136.261719 2205.800781 1117.53125 2165.800781 1150.140625 2082.300781 C 1226.378906 1821.820312 1688.289062 1567.339844 1912.25 1564.371094 L 1916.328125 1564.371094 Z M 1768.320312 1720.898438 L 1744.269531 1880.011719 L 1643.121094 1910.578125 L 1679.089844 1766.058594 Z M 1672.050781 1769.621094 L 1636.46875 1912.589844 L 1390.941406 1986.769531 L 1448.75 1882.621094 Z M 1496.109375 1785.101562 L 1444.449219 1878.128906 L 1359.519531 1921.121094 L 1421.769531 1822.5 Z M 1743.300781 1886.480469 L 1734.261719 1946.261719 C 1708.359375 1937.589844 1671.570312 1939.371094 1634.390625 1945.628906 L 1641.449219 1917.25 Z M 1634.808594 1919.269531 L 1627.96875 1946.710938 C 1582.980469 1954.898438 1538.378906 1969.179688 1512.910156 1979.191406 C 1467.820312 1996.921875 1401.941406 2037.238281 1340.03125 2078.46875 L 1386.820312 1994.179688 Z M 1120.390625 2017.28125 C 1120.390625 2017.28125 1055.800781 2105.070312 1075.671875 2164.691406 C 1075.671875 2164.691406 972.976562 2123.289062 878.570312 2143.160156 C 878.570312 2143.160156 1080.640625 2052.070312 1120.390625 2017.28125 Z M 1120.390625 2017.28125 "/>
<path fill-rule="nonzero" fill="rgb(100%, 85.9375%, 75.78125%)" fill-opacity="1" d="M 3227.050781 789.359375 C 3227.050781 789.359375 3109.941406 694.5 3131.019531 660.539062 C 3152.101562 626.578125 3227.851562 701.148438 3227.851562 701.148438 C 3227.851562 701.148438 3196.480469 669.109375 3203.941406 643.441406 C 3211.390625 617.769531 3290.890625 664.140625 3290.890625 664.140625 C 3290.890625 664.140625 3279.980469 799.480469 3227.050781 789.359375 Z M 3227.050781 789.359375 "/>
<path fill-rule="nonzero" fill="rgb(11.767578%, 11.767578%, 11.767578%)" fill-opacity="1" d="M 1995.71875 1323.320312 C 1995.71875 1323.320312 2025.53125 1161.019531 2035.46875 1127.890625 C 2045.410156 1094.769531 2141.46875 960.609375 2163 953.980469 C 2184.53125 947.359375 2249.121094 930.800781 2249.121094 930.800781 C 2249.121094 930.800781 2318.679688 876.140625 2399.839844 882.769531 C 2480.988281 889.390625 2552.210938 891.050781 2552.210938 891.050781 L 2500.871094 922.519531 L 2603.558594 934.109375 C 2603.558594 934.109375 2567.121094 983.800781 2548.898438 998.699219 L 2623.429688 1010.300781 C 2623.429688 1010.300781 2598.589844 1028.519531 2573.738281 1050.050781 C 2573.738281 1050.050781 2585.339844 1114.640625 2583.679688 1161.019531 C 2582.019531 1207.390625 2557.179688 1329.949219 2507.488281 1326.640625 C 2457.808594 1323.320312 1995.71875 1323.320312 1995.71875 1323.320312 Z M 1995.71875 1323.320312 "/>
<path fill-rule="nonzero" fill="rgb(23.535156%, 50.193787%, 47.459412%)" fill-opacity="1" d="M 1995.71875 1323.320312 C 1995.71875 1323.320312 2030.5 1167.640625 2086.808594 1076.550781 C 2143.128906 985.449219 2259.058594 929.140625 2350.148438 940.730469 C 2441.25 952.328125 2505.839844 1000.359375 2543.929688 1073.230469 C 2582.019531 1146.109375 2545.589844 1262.039062 2545.589844 1262.039062 Z M 1995.71875 1323.320312 "/>
<path fill-rule="nonzero" fill="rgb(100%, 85.9375%, 75.78125%)" fill-opacity="1" d="M 2055.339844 1303.449219 C 2055.339844 1303.449219 2008.96875 1250.449219 1987.441406 1278.609375 C 1965.910156 1306.761719 1964.25 1422.699219 2038.78125 1404.480469 C 2113.308594 1386.261719 2457.808594 1502.191406 2457.808594 1502.191406 C 2457.808594 1502.191406 2485.960938 1540.289062 2517.429688 1532.011719 C 2548.898438 1523.730469 2573.738281 1426.011719 2560.488281 1416.070312 C 2547.238281 1406.140625 2479.339844 1389.570312 2479.339844 1389.570312 Z M 2055.339844 1303.449219 "/>
<path fill-rule="nonzero" fill="rgb(23.535156%, 50.193787%, 47.459412%)" fill-opacity="1" d="M 2020.558594 1808.601562 C 1995.519531 1933.820312 1920.769531 1890.320312 1875.480469 1896.898438 C 1824.121094 1904.359375 1811.601562 1965.628906 1778.558594 1949.699219 C 1723.238281 1923.019531 1598.730469 1959.460938 1548.539062 1979.191406 C 1439.191406 2022.179688 1207.359375 2197.808594 1207.359375 2197.808594 C 1207.359375 2197.808594 1250.421875 2545.621094 1349.789062 2575.429688 C 1349.789062 2575.429688 1459.101562 2532.371094 1478.980469 2532.371094 C 1498.851562 2532.371094 1568.410156 2525.746094 1568.410156 2525.746094 C 1568.410156 2525.746094 1618.101562 2890.113281 1591.601562 2989.488281 L 2863.578125 2989.488281 L 2850.328125 2847.054688 C 2850.328125 2847.054688 2919.890625 2386.621094 2916.578125 2336.933594 C 2913.269531 2287.246094 2999.390625 1787.070312 2956.328125 1694.320312 C 2913.269531 1601.570312 2721.148438 1578.378906 2721.148438 1578.378906 C 2721.148438 1578.378906 2575.398438 1677.761719 2562.148438 1710.878906 C 2548.898438 1744 2588.648438 1710.878906 2519.089844 1720.820312 C 2519.089844 1720.820312 2504.179688 1775.46875 2487.621094 1768.851562 C 2471.058594 1762.21875 2473.539062 1701.769531 2432.96875 1706.738281 C 2392.390625 1711.710938 2020.558594 1808.601562 2020.558594 1808.601562 Z M 2020.558594 1808.601562 "/>
<path fill-rule="nonzero" fill="rgb(100%, 85.9375%, 75.78125%)" fill-opacity="1" d="M 2555.519531 1185.859375 C 2555.519531 1185.859375 2547.238281 1336.570312 2545.589844 1354.789062 C 2543.929688 1373.011719 2457.808594 1571.761719 2457.808594 1571.761719 L 2449.53125 1730.75 C 2449.53125 1730.75 2197.78125 1931.160156 2121.589844 1894.71875 C 2045.410156 1858.28125 2020.558594 1808.601562 2020.558594 1808.601562 L 2057 1551.878906 C 2057 1551.878906 2020.558594 1354.789062 2020.558594 1316.699219 C 2020.558594 1278.609375 2045.410156 1257.070312 2045.410156 1257.070312 C 2045.410156 1257.070312 2141.46875 1051.699219 2181.21875 1026.859375 C 2220.96875 1002.019531 2325.308594 968.890625 2409.78125 992.078125 C 2494.238281 1015.269531 2552.210938 1137.828125 2555.519531 1185.859375 Z M 2555.519531 1185.859375 "/>
<path fill-rule="nonzero" fill="rgb(18.821716%, 40.795898%, 38.818359%)" fill-opacity="1" d="M 2691.851562 1639.609375 C 2691.851562 1639.609375 2736.351562 1852.75 2766.800781 1937.070312 C 2797.25 2021.390625 2806.621094 2096.339844 2846.429688 2096.339844 C 2886.25 2096.339844 2970.570312 1845.71875 2970.570312 1845.71875 C 2970.570312 1845.71875 2766.800781 1616.179688 2691.851562 1639.609375 Z M 2691.851562 1639.609375 "/>
<path fill-rule="nonzero" fill="rgb(100%, 85.9375%, 75.78125%)" fill-opacity="1" d="M 2691.851562 1639.609375 C 2691.851562 1639.609375 2759.769531 1426.460938 2773.820312 1386.640625 C 2787.878906 1346.820312 3153.269531 876.03125 3153.269531 876.03125 C 3153.269531 876.03125 3197.769531 690.988281 3263.359375 616.03125 C 3328.941406 541.089844 3450.738281 445.050781 3476.5 470.820312 C 3502.269531 496.578125 3474.160156 541.089844 3474.160156 541.089844 C 3474.160156 541.089844 3548.941406 497.101562 3558.480469 510.640625 C 3582.039062 544.070312 3494.769531 588.230469 3483.53125 639.460938 C 3469.941406 701.398438 3460.109375 726.121094 3460.109375 726.121094 C 3460.109375 726.121094 3476.5 763.601562 3448.390625 789.359375 C 3420.289062 815.128906 3402.691406 866.019531 3388.628906 889.441406 C 3374.578125 912.871094 3301.160156 992.339844 3301.160156 992.339844 C 3301.160156 992.339844 3079.621094 1461.359375 3046.828125 1517.570312 C 3014.039062 1573.789062 2982.289062 1801.21875 2975.261719 1819.960938 C 2968.230469 1838.691406 2919.050781 1972.199219 2846.429688 1932.390625 C 2773.820312 1892.570312 2689.5 1761.398438 2691.851562 1639.609375 Z M 2691.851562 1639.609375 "/>
<path fill-rule="nonzero" fill="rgb(100%, 85.9375%, 75.78125%)" fill-opacity="1" d="M 1267.75 2229.851562 L 836.777344 2346.964844 C 836.777344 2346.964844 574.445312 2236.878906 551.023438 2206.429688 C 527.597656 2175.980469 487.78125 2119.769531 487.78125 2119.769531 C 462.796875 2116.359375 437.8125 2108.019531 412.828125 2131.480469 C 387.84375 2134.128906 362.859375 2130.910156 337.875 2157.238281 C 304.617188 2155.769531 276.792969 2163.621094 265.265625 2199.398438 C 235.492188 2195.800781 228.316406 2211.96875 223.105469 2229.851562 C 223.105469 2229.851562 260.582031 2361.019531 274.636719 2393.8125 C 288.6875 2426.601562 361.296875 2452.367188 361.296875 2452.367188 L 391.746094 2447.683594 L 433.910156 2443 C 433.910156 2443 668.132812 2663.171875 780.5625 2658.488281 C 892.992188 2653.800781 1319.28125 2513.265625 1342.710938 2494.527344 C 1366.128906 2475.789062 1398.921875 2304.804688 1267.75 2229.851562 Z M 1267.75 2229.851562 "/>
<path fill-rule="nonzero" fill="rgb(100%, 65.039062%, 51.756287%)" fill-opacity="1" d="M 2060.359375 1421.371094 C 2058.730469 1422.261719 2058.121094 1424.300781 2059 1425.929688 C 2059 1425.929688 2067.140625 1441.210938 2078.070312 1456.441406 C 2083.53125 1464.058594 2089.699219 1471.660156 2096.039062 1477.480469 C 2102.378906 1483.289062 2108.949219 1487.609375 2115.941406 1487.339844 C 2122.21875 1487.089844 2135.660156 1484.398438 2153.851562 1480.628906 C 2172.039062 1476.859375 2194.53125 1472.019531 2217.269531 1467.53125 C 2240 1463.03125 2262.988281 1458.839844 2282.050781 1456.441406 C 2301.101562 1454.039062 2316.628906 1453.710938 2322.589844 1455.691406 C 2329.269531 1457.921875 2339.808594 1464.308594 2351.339844 1472.609375 C 2362.871094 1480.910156 2375.558594 1491.148438 2387.320312 1501.058594 C 2410.839844 1520.859375 2430.671875 1539.449219 2430.671875 1539.449219 C 2432.03125 1540.691406 2434.140625 1540.621094 2435.398438 1539.269531 C 2436.660156 1537.921875 2436.601562 1535.808594 2435.269531 1534.539062 C 2435.269531 1534.539062 2415.339844 1515.820312 2391.660156 1495.878906 C 2379.820312 1485.910156 2367.039062 1475.640625 2355.28125 1467.171875 C 2343.519531 1458.710938 2332.960938 1452.070312 2324.730469 1449.328125 C 2315.789062 1446.351562 2300.558594 1447.339844 2281.210938 1449.769531 C 2261.859375 1452.210938 2238.761719 1456.390625 2215.949219 1460.898438 C 2193.140625 1465.410156 2170.628906 1470.25 2152.488281 1474.011719 C 2134.339844 1477.769531 2120.160156 1480.449219 2115.671875 1480.621094 C 2111.890625 1480.761719 2106.359375 1477.808594 2100.589844 1472.519531 C 2094.820312 1467.230469 2088.851562 1459.878906 2083.550781 1452.488281 C 2072.941406 1437.699219 2064.921875 1422.769531 2064.921875 1422.769531 C 2064.050781 1421.121094 2062 1420.5 2060.359375 1421.371094 Z M 2060.359375 1421.371094 "/>
<path fill-rule="nonzero" fill="rgb(11.767578%, 11.767578%, 11.767578%)" fill-opacity="1" d="M 2285.949219 1103.839844 C 2283.101562 1115.621094 2273.941406 1123.519531 2265.5 1121.480469 C 2257.050781 1119.441406 2252.511719 1108.230469 2255.359375 1096.449219 C 2258.210938 1084.671875 2267.359375 1076.769531 2275.808594 1078.820312 C 2284.25 1080.859375 2288.789062 1092.058594 2285.949219 1103.839844 Z M 2285.949219 1103.839844 "/>
<path fill-rule="nonzero" fill="rgb(11.767578%, 11.767578%, 11.767578%)" fill-opacity="1" d="M 2273.449219 1075.269531 C 2260.808594 1073.980469 2248.929688 1076.539062 2238.878906 1080.570312 C 2218.769531 1088.628906 2205.300781 1102.351562 2205.300781 1102.351562 C 2204.019531 1103.679688 2204.039062 1105.789062 2205.351562 1107.089844 C 2206.679688 1108.398438 2208.820312 1108.378906 2210.128906 1107.039062 C 2210.128906 1107.039062 2222.761719 1094.261719 2241.378906 1086.789062 C 2259.988281 1079.328125 2283.890625 1077.019531 2308.210938 1098.140625 C 2309.621094 1099.351562 2311.730469 1099.191406 2312.949219 1097.789062 C 2314.148438 1096.390625 2313.988281 1094.269531 2312.589844 1093.058594 C 2299.5 1081.679688 2286.109375 1076.550781 2273.460938 1075.269531 Z M 2273.449219 1075.269531 "/>
<path fill-rule="nonzero" fill="rgb(11.767578%, 11.767578%, 11.767578%)" fill-opacity="1" d="M 2444.640625 1121.199219 C 2442.78125 1121.140625 2441.230469 1122.621094 2441.179688 1124.480469 C 2441.128906 1126.351562 2442.609375 1127.898438 2444.46875 1127.949219 C 2444.46875 1127.949219 2461.988281 1128.371094 2479.539062 1137.589844 C 2497.078125 1146.808594 2514.5 1164.210938 2514.898438 1199.960938 C 2514.921875 1201.808594 2516.429688 1203.289062 2518.28125 1203.289062 C 2520.128906 1203.269531 2521.609375 1201.761719 2521.609375 1199.910156 C 2521.179688 1161.949219 2501.75 1141.660156 2482.640625 1131.628906 C 2463.539062 1121.589844 2444.640625 1121.199219 2444.640625 1121.199219 Z M 2444.640625 1121.199219 "/>
<path fill-rule="nonzero" fill="rgb(11.767578%, 11.767578%, 11.767578%)" fill-opacity="1" d="M 2491.320312 1157.671875 C 2488.46875 1169.449219 2479.320312 1177.351562 2470.871094 1175.308594 C 2462.421875 1173.261719 2457.878906 1162.058594 2460.730469 1150.28125 C 2463.578125 1138.5 2472.730469 1130.601562 2481.179688 1132.640625 C 2489.628906 1134.679688 2494.160156 1145.890625 2491.320312 1157.671875 Z M 2491.320312 1157.671875 "/>
<path fill-rule="nonzero" fill="rgb(11.767578%, 11.767578%, 11.767578%)" fill-opacity="1" d="M 2320 1032.050781 C 2313.25 1029.238281 2303.300781 1030.621094 2290.980469 1033.148438 C 2278.671875 1035.671875 2264.308594 1039.78125 2250.570312 1044.148438 C 2223.121094 1052.878906 2198.199219 1062.640625 2198.199219 1062.640625 C 2196.46875 1063.328125 2195.621094 1065.300781 2196.320312 1067.03125 C 2197 1068.730469 2198.941406 1069.578125 2200.660156 1068.910156 C 2200.660156 1068.910156 2225.441406 1059.199219 2252.640625 1050.550781 C 2266.230469 1046.21875 2280.429688 1042.160156 2292.339844 1039.71875 C 2304.25 1037.28125 2314.179688 1036.898438 2317.371094 1038.230469 C 2326.78125 1042.148438 2332.058594 1047.121094 2335.03125 1051.03125 C 2338.011719 1054.941406 2338.628906 1057.46875 2338.628906 1057.46875 C 2339.070312 1059.269531 2340.898438 1060.371094 2342.699219 1059.929688 C 2344.5 1059.480469 2345.601562 1057.648438 2345.160156 1055.851562 C 2345.160156 1055.851562 2344.070312 1051.738281 2340.421875 1046.949219 C 2336.769531 1042.160156 2330.46875 1036.410156 2320 1032.050781 Z M 2320 1032.050781 "/>
<path fill-rule="nonzero" fill="rgb(11.767578%, 11.767578%, 11.767578%)" fill-opacity="1" d="M 2439.429688 1073.160156 C 2437.558594 1073.25 2436.128906 1074.851562 2436.230469 1076.710938 C 2436.320312 1078.558594 2437.890625 1079.988281 2439.738281 1079.910156 C 2439.738281 1079.910156 2457.609375 1079.308594 2469.71875 1084.601562 C 2472.191406 1085.679688 2477.449219 1089.480469 2483.261719 1094.421875 C 2489.070312 1099.351562 2495.660156 1105.460938 2501.839844 1111.378906 C 2514.199219 1123.230469 2524.941406 1134.351562 2524.941406 1134.351562 C 2526.230469 1135.691406 2528.378906 1135.738281 2529.71875 1134.441406 C 2531.039062 1133.148438 2531.078125 1131.039062 2529.808594 1129.699219 C 2529.808594 1129.699219 2519.011719 1118.480469 2506.539062 1106.519531 C 2500.289062 1100.539062 2493.628906 1094.371094 2487.640625 1089.289062 C 2481.660156 1084.210938 2476.550781 1080.238281 2472.390625 1078.421875 C 2458 1072.121094 2439.429688 1073.160156 2439.429688 1073.160156 Z M 2439.429688 1073.160156 "/>
<path fill-rule="nonzero" fill="rgb(100%, 33.325195%, 33.325195%)" fill-opacity="1" d="M 2275.621094 1320.011719 C 2275.621094 1320.011719 2336.070312 1277.78125 2366.71875 1284.398438 C 2397.359375 1291.03125 2405.640625 1345.679688 2405.640625 1345.679688 C 2405.640625 1345.679688 2345.179688 1311.730469 2275.621094 1320.011719 Z M 2275.621094 1320.011719 "/>
<path fill-rule="nonzero" fill="rgb(14.501953%, 30.979919%, 29.417419%)" fill-opacity="1" d="M 1582.421875 2067 C 1580.621094 2066.589844 1578.820312 2067.699219 1578.390625 2069.5 C 1578.390625 2069.5 1568.421875 2112.640625 1558.878906 2164.480469 C 1549.339844 2216.320312 1540.179688 2276.714844 1541.878906 2312.265625 C 1545.210938 2382.246094 1565.058594 2526.191406 1565.058594 2526.191406 C 1565.308594 2528.046875 1567.019531 2529.347656 1568.878906 2529.085938 C 1570.730469 2528.839844 1572.03125 2527.125 1571.769531 2525.269531 C 1571.769531 2525.269531 1551.878906 2381.058594 1548.578125 2311.917969 C 1546.960938 2277.90625 1555.988281 2217.378906 1565.5 2165.710938 C 1575.011719 2114.03125 1584.960938 2071.039062 1584.960938 2071.039062 C 1585.378906 2069.21875 1584.230469 2067.410156 1582.421875 2067 Z M 1582.421875 2067 "/>
<path fill-rule="nonzero" fill="rgb(14.501953%, 30.979919%, 29.417419%)" fill-opacity="1" d="M 2395.210938 1883.71875 C 2393.71875 1882.621094 2391.628906 1882.929688 2390.519531 1884.421875 C 2390.519531 1884.421875 2331.738281 1963.890625 2260.179688 2051.179688 C 2188.609375 2138.46875 2103.730469 2233.746094 2053.570312 2264.492188 C 1951.148438 2327.269531 1821.910156 2386.53125 1767.859375 2454.09375 C 1764.390625 2458.429688 1762.25 2461.816406 1761.589844 2465.226562 C 1761.25 2466.929688 1761.390625 2468.796875 1762.25 2470.398438 C 1763.109375 2472 1764.589844 2473.054688 1766.140625 2473.640625 C 1769.25 2474.8125 1772.839844 2474.683594 1777.28125 2474.035156 C 1781.71875 2473.390625 1786.980469 2472.082031 1793.058594 2470.265625 C 1817.359375 2463.007812 1854.238281 2447.25 1892.808594 2429.417969 C 1969.941406 2393.757812 2053.609375 2349.871094 2053.609375 2349.871094 C 2055.261719 2349 2055.890625 2346.957031 2055.019531 2345.3125 C 2054.140625 2343.664062 2052.101562 2343.035156 2050.460938 2343.910156 C 2050.460938 2343.910156 1966.859375 2387.769531 1889.960938 2423.328125 C 1851.511719 2441.105469 1814.648438 2456.796875 1791.128906 2463.824219 C 1785.25 2465.582031 1780.191406 2466.800781 1776.269531 2467.375 C 1772.339844 2467.945312 1769.53125 2467.742188 1768.558594 2467.375 C 1768.070312 2467.195312 1768.128906 2467.132812 1768.160156 2467.195312 C 1768.210938 2467.261719 1768.070312 2467.183594 1768.210938 2466.535156 C 1768.460938 2465.238281 1769.960938 2462.242188 1773.109375 2458.296875 C 1825.058594 2393.363281 1954.171875 2333.332031 2057.121094 2270.230469 C 2109.640625 2238.042969 2193.699219 2142.871094 2265.390625 2055.429688 C 2337.089844 1967.988281 2395.910156 1888.441406 2395.910156 1888.441406 C 2397.039062 1886.949219 2396.71875 1884.820312 2395.210938 1883.710938 Z M 2395.210938 1883.71875 "/>
<path fill-rule="nonzero" fill="rgb(14.501953%, 30.979919%, 29.417419%)" fill-opacity="1" d="M 2214.550781 2406.453125 C 2213.039062 2406.785156 2211.398438 2407.378906 2209.421875 2408.207031 C 2205.46875 2409.859375 2200.300781 2412.46875 2193.988281 2415.964844 C 2181.378906 2422.957031 2164.25 2433.421875 2144.03125 2446.25 C 2103.601562 2471.90625 2050.96875 2506.996094 1998.789062 2542.40625 C 1894.410156 2613.230469 1791.738281 2685.285156 1791.738281 2685.285156 C 1790.21875 2686.351562 1789.839844 2688.453125 1790.910156 2689.976562 C 1791.96875 2691.5 1794.070312 2691.875 1795.601562 2690.808594 C 1795.601562 2690.808594 1898.289062 2618.757812 2002.601562 2547.972656 C 2054.75 2512.582031 2107.308594 2477.527344 2147.628906 2451.945312 C 2167.78125 2439.15625 2184.890625 2428.703125 2197.28125 2421.835938 C 2203.46875 2418.402344 2208.480469 2415.859375 2212.011719 2414.386719 C 2212.859375 2414.027344 2213.28125 2413.953125 2213.929688 2413.726562 C 2213.710938 2414.4375 2213.640625 2414.84375 2213.28125 2415.789062 C 2211.761719 2419.679688 2209.070312 2425.363281 2205.390625 2432.441406 C 2198.019531 2446.597656 2186.699219 2466.40625 2172.738281 2489.902344 C 2144.820312 2536.894531 2106.328125 2598.699219 2067.421875 2660.171875 C 1989.589844 2783.121094 1910.070312 2904.820312 1910.070312 2904.820312 C 1909.039062 2906.390625 1909.5 2908.503906 1911.078125 2909.511719 C 1912.640625 2910.511719 1914.71875 2910.0625 1915.730469 2908.503906 C 1915.730469 2908.503906 1995.210938 2786.769531 2073.070312 2663.765625 C 2112 2602.265625 2150.539062 2540.464844 2178.519531 2493.363281 C 2192.511719 2469.8125 2203.859375 2449.929688 2211.351562 2435.554688 C 2215.089844 2428.367188 2217.859375 2422.578125 2219.539062 2418.242188 C 2220.390625 2416.074219 2220.96875 2414.289062 2221.25 2412.675781 C 2221.390625 2411.867188 2221.5 2411.132812 2221.390625 2410.222656 C 2221.28125 2409.3125 2220.871094 2408.003906 2219.679688 2407.109375 C 2217.648438 2405.589844 2216.070312 2406.125 2214.550781 2406.453125 Z M 2214.550781 2406.453125 "/>
<path fill-rule="nonzero" fill="rgb(14.501953%, 30.979919%, 29.417419%)" fill-opacity="1" d="M 2483.519531 1992.5 C 2481.730469 1992.019531 2479.890625 1993.070312 2479.398438 1994.859375 C 2479.398438 1994.859375 2446.308594 2118.121094 2392.140625 2257.875 C 2337.96875 2397.636719 2262.339844 2553.890625 2179.140625 2619.152344 C 2177.671875 2620.296875 2177.410156 2622.421875 2178.570312 2623.882812 C 2179.71875 2625.351562 2181.839844 2625.605469 2183.300781 2624.453125 C 2269.03125 2557.214844 2344.089844 2400.429688 2398.410156 2260.289062 C 2452.71875 2120.140625 2485.890625 1996.621094 2485.890625 1996.621094 C 2486.371094 1994.828125 2485.308594 1992.980469 2483.519531 1992.5 Z M 2483.519531 1992.5 "/>
<path fill-rule="nonzero" fill="rgb(14.501953%, 30.979919%, 29.417419%)" fill-opacity="1" d="M 2483.429688 2187.929688 C 2481.621094 2187.480469 2479.789062 2188.609375 2479.359375 2190.429688 C 2479.359375 2190.429688 2452.890625 2302.964844 2413.179688 2433.277344 C 2373.46875 2563.585938 2320.238281 2711.816406 2267.929688 2782.101562 C 2266.808594 2783.601562 2267.121094 2785.726562 2268.628906 2786.835938 C 2270.128906 2787.960938 2272.261719 2787.644531 2273.371094 2786.136719 C 2327.058594 2713.984375 2379.839844 2565.75 2419.621094 2435.207031 C 2459.410156 2304.660156 2485.929688 2191.960938 2485.929688 2191.960938 C 2486.351562 2190.160156 2485.230469 2188.359375 2483.429688 2187.929688 Z M 2483.429688 2187.929688 "/>
<path fill-rule="nonzero" fill="rgb(14.501953%, 30.979919%, 29.417419%)" fill-opacity="1" d="M 2529.058594 1836.691406 C 2527.179688 1836.660156 2525.640625 1838.179688 2525.640625 1840.070312 C 2525.640625 1840.070312 2524.839844 2028.769531 2509.121094 2259.277344 C 2493.390625 2489.792969 2462.628906 2762.21875 2403.269531 2928.75 C 2402.648438 2930.507812 2403.578125 2932.429688 2405.328125 2933.046875 C 2407.089844 2933.664062 2409.011719 2932.742188 2409.628906 2930.988281 C 2469.519531 2762.960938 2500.078125 2490.464844 2515.820312 2259.71875 C 2531.570312 2028.96875 2532.390625 1840.070312 2532.390625 1840.070312 C 2532.390625 1838.210938 2530.910156 1836.710938 2529.058594 1836.691406 Z M 2529.058594 1836.691406 "/>
<path fill-rule="nonzero" fill="rgb(14.501953%, 30.979919%, 29.417419%)" fill-opacity="1" d="M 2598.308594 1840.019531 C 2596.460938 1840.179688 2595.078125 1841.808594 2595.238281 1843.660156 C 2595.238281 1843.660156 2605.148438 1962.390625 2645.558594 2067.359375 C 2665.75 2119.839844 2693.550781 2169.019531 2732.109375 2198.230469 C 2770.679688 2227.429688 2820.269531 2236.027344 2881.570312 2207.46875 C 2883.25 2206.691406 2883.96875 2204.691406 2883.191406 2203 C 2882.398438 2201.320312 2880.398438 2200.601562 2878.71875 2201.378906 C 2819.121094 2229.140625 2773.089844 2220.769531 2736.191406 2192.839844 C 2699.300781 2164.898438 2671.789062 2116.800781 2651.820312 2064.941406 C 2611.898438 1961.230469 2601.949219 1843.089844 2601.949219 1843.089844 C 2601.789062 1841.238281 2600.160156 1839.859375 2598.308594 1840.019531 Z M 2598.308594 1840.019531 "/>
<path fill-rule="nonzero" fill="rgb(14.501953%, 30.979919%, 29.417419%)" fill-opacity="1" d="M 2753.410156 2370.121094 C 2751.628906 2370.589844 2750.558594 2372.40625 2751 2374.195312 C 2751 2374.195312 2774.179688 2463.605469 2797.769531 2567.476562 C 2821.359375 2671.347656 2845.351562 2789.972656 2846.988281 2847.144531 C 2847.03125 2849.011719 2848.578125 2850.484375 2850.449219 2850.429688 C 2852.300781 2850.363281 2853.75 2848.816406 2853.691406 2846.96875 C 2852.019531 2788.203125 2827.960938 2669.972656 2804.339844 2565.988281 C 2780.730469 2462 2757.539062 2372.53125 2757.539062 2372.53125 C 2757.070312 2370.722656 2755.21875 2369.640625 2753.410156 2370.121094 Z M 2753.410156 2370.121094 "/>
<path fill-rule="nonzero" fill="rgb(14.501953%, 30.979919%, 29.417419%)" fill-opacity="1" d="M 1880.539062 1954.890625 C 1878.730469 1955.378906 1877.660156 1957.25 1878.171875 1959.058594 C 1878.171875 1959.058594 1901.640625 2044.230469 1965.960938 2096.628906 C 1967.410156 2097.800781 1969.53125 2097.558594 1970.691406 2096.109375 C 1971.859375 2094.671875 1971.648438 2092.550781 1970.210938 2091.371094 C 1908.050781 2040.71875 1884.660156 1957.261719 1884.660156 1957.261719 C 1884.171875 1955.46875 1882.328125 1954.410156 1880.539062 1954.890625 Z M 1880.539062 1954.890625 "/>
<path fill-rule="nonzero" fill="rgb(100%, 65.039062%, 51.756287%)" fill-opacity="1" d="M 2792.820312 1465.25 C 2790.96875 1465.121094 2789.359375 1466.511719 2789.21875 1468.359375 C 2789.21875 1468.359375 2787.980469 1486.179688 2801.671875 1502.679688 C 2815.359375 1519.171875 2843.640625 1534.109375 2900.5 1530.550781 C 2902.371094 1530.441406 2903.789062 1528.820312 2903.660156 1526.960938 C 2903.539062 1525.109375 2901.960938 1523.691406 2900.109375 1523.800781 C 2844.539062 1527.269531 2818.960938 1512.929688 2806.878906 1498.378906 C 2794.808594 1483.839844 2795.929688 1468.839844 2795.929688 1468.839844 C 2796.058594 1466.988281 2794.671875 1465.378906 2792.820312 1465.25 Z M 2792.820312 1465.25 "/>
<path fill-rule="nonzero" fill="rgb(100%, 65.039062%, 51.756287%)" fill-opacity="1" d="M 3406.800781 585.800781 C 3402.570312 586.539062 3399.761719 589.890625 3397.070312 594.210938 C 3394.378906 598.53125 3391.878906 604.191406 3389.441406 610.820312 C 3384.578125 624.078125 3380.058594 641.171875 3376.171875 658.160156 C 3368.378906 692.121094 3363.109375 725.609375 3363.109375 725.609375 C 3362.808594 727.441406 3364.070312 729.179688 3365.910156 729.460938 C 3367.730469 729.730469 3369.429688 728.480469 3369.71875 726.660156 C 3369.71875 726.660156 3375.019531 693.359375 3382.738281 659.691406 C 3386.601562 642.859375 3391.070312 625.910156 3395.761719 613.140625 C 3398.101562 606.761719 3400.5 601.410156 3402.769531 597.761719 C 3405.039062 594.109375 3407.238281 592.539062 3407.980469 592.410156 C 3417.609375 590.710938 3427.511719 590.558594 3434.238281 592.640625 C 3437.601562 593.671875 3440.109375 595.191406 3441.691406 597.148438 C 3443.269531 599.109375 3444.128906 601.539062 3443.878906 605.261719 C 3443.300781 614.058594 3441.230469 645.71875 3440.199219 678.140625 C 3439.691406 694.359375 3439.449219 710.769531 3439.761719 724.648438 C 3440.078125 738.53125 3440.820312 749.691406 3442.828125 756.378906 C 3443.378906 758.160156 3445.261719 759.160156 3447.039062 758.609375 C 3448.800781 758.070312 3449.789062 756.210938 3449.269531 754.449219 C 3447.769531 749.429688 3446.78125 738.191406 3446.46875 724.519531 C 3446.160156 710.839844 3446.441406 694.5 3446.949219 678.359375 C 3447.96875 646.089844 3450 614.511719 3450.589844 605.738281 C 3450.929688 600.679688 3449.570312 596.25 3446.910156 592.941406 C 3444.238281 589.640625 3440.460938 587.5 3436.210938 586.191406 C 3427.71875 583.578125 3417.089844 583.988281 3406.808594 585.800781 Z M 3406.800781 585.800781 "/>
<path fill-rule="nonzero" fill="rgb(100%, 65.039062%, 51.756287%)" fill-opacity="1" d="M 3474.949219 537.808594 C 3474.089844 537.589844 3473.179688 537.730469 3472.410156 538.199219 C 3472.410156 538.199219 3452.429688 550.261719 3429.769531 566.289062 C 3407.109375 582.328125 3381.828125 602.058594 3370.640625 618.839844 C 3369.589844 620.390625 3370.011719 622.5 3371.558594 623.53125 C 3373.128906 624.570312 3375.230469 624.140625 3376.25 622.570312 C 3386.140625 607.730469 3411.238281 587.691406 3433.671875 571.808594 C 3456.101562 555.941406 3475.921875 543.980469 3475.921875 543.980469 C 3477.519531 543.019531 3478.03125 540.929688 3477.058594 539.339844 C 3476.589844 538.570312 3475.828125 538.011719 3474.960938 537.808594 Z M 3474.949219 537.808594 "/>
<path fill-rule="nonzero" fill="rgb(100%, 65.039062%, 51.756287%)" fill-opacity="1" d="M 3227.851562 701.148438 C 3226.351562 700.070312 3224.25 700.398438 3223.160156 701.890625 C 3222.078125 703.398438 3222.410156 705.488281 3223.910156 706.589844 C 3223.910156 706.589844 3238.179688 717.121094 3253.800781 729.371094 C 3261.609375 735.5 3269.75 742.039062 3276.539062 747.910156 C 3283.339844 753.78125 3288.859375 759.128906 3291.101562 762.109375 C 3292.21875 763.609375 3294.339844 763.910156 3295.828125 762.769531 C 3297.300781 761.648438 3297.589844 759.558594 3296.488281 758.078125 C 3293.460938 754.039062 3287.859375 748.820312 3280.929688 742.828125 C 3274 736.839844 3265.820312 730.238281 3257.960938 724.070312 C 3242.25 711.730469 3227.851562 701.148438 3227.851562 701.148438 Z M 3227.851562 701.148438 "/>
<path fill-rule="nonzero" fill="rgb(100%, 65.039062%, 51.756287%)" fill-opacity="1" d="M 3266.601562 645.011719 C 3265.128906 643.859375 3263.011719 644.109375 3261.859375 645.578125 C 3260.71875 647.050781 3261 649.179688 3262.480469 650.308594 L 3331.550781 704.179688 C 3333.019531 705.328125 3335.140625 705.070312 3336.28125 703.609375 C 3337.441406 702.140625 3337.179688 700.019531 3335.71875 698.871094 Z M 3266.601562 645.011719 "/>
<path fill-rule="nonzero" fill="rgb(100%, 65.039062%, 51.756287%)" fill-opacity="1" d="M 3206.988281 762.199219 C 3205.570312 761.011719 3203.460938 761.191406 3202.261719 762.601562 C 3201.050781 764 3201.210938 766.121094 3202.609375 767.328125 L 3258.839844 815.371094 C 3260.25 816.558594 3262.371094 816.378906 3263.570312 814.96875 C 3264.78125 813.570312 3264.621094 811.449219 3263.21875 810.238281 Z M 3206.988281 762.199219 "/>
<path fill-rule="nonzero" fill="rgb(100%, 65.039062%, 51.756287%)" fill-opacity="1" d="M 835.019531 2344.085938 C 833.441406 2345.046875 832.933594 2347.101562 833.878906 2348.6875 C 833.878906 2348.6875 893.566406 2448.242188 850.226562 2528.078125 C 849.347656 2529.710938 849.953125 2531.75 851.585938 2532.632812 C 853.222656 2533.515625 855.261719 2532.90625 856.144531 2531.273438 C 901.8125 2447.148438 839.667969 2345.226562 839.667969 2345.226562 C 838.703125 2343.617188 836.617188 2343.105469 835.019531 2344.085938 Z M 835.019531 2344.085938 "/>
<path fill-rule="nonzero" fill="rgb(100%, 65.039062%, 51.756287%)" fill-opacity="1" d="M 419.265625 2218.339844 C 417.441406 2218.671875 416.226562 2220.421875 416.550781 2222.25 L 439.953125 2354.5625 C 440.023438 2354.945312 440.15625 2355.316406 440.347656 2355.65625 C 440.347656 2355.65625 448.214844 2369.675781 456.082031 2384.976562 C 460.019531 2392.628906 463.949219 2400.601562 466.867188 2407.242188 C 468.324219 2410.5625 469.558594 2413.519531 470.371094 2415.917969 C 471.1875 2418.320312 471.511719 2420.265625 471.511719 2420.742188 C 471.511719 2420.96875 471.355469 2421.574219 470.546875 2422.539062 C 469.734375 2423.5 468.359375 2424.691406 466.601562 2425.867188 C 463.089844 2428.226562 458.113281 2430.628906 453.101562 2432.707031 C 443.082031 2436.855469 432.984375 2439.761719 432.984375 2439.761719 C 431.191406 2440.269531 430.152344 2442.132812 430.664062 2443.925781 C 431.167969 2445.71875 433.035156 2446.761719 434.828125 2446.25 C 434.828125 2446.25 445.214844 2443.269531 455.6875 2438.929688 C 460.925781 2436.761719 466.199219 2434.28125 470.371094 2431.480469 C 472.457031 2430.078125 474.289062 2428.617188 475.71875 2426.921875 C 477.148438 2425.222656 478.261719 2423.148438 478.261719 2420.742188 C 478.261719 2418.582031 477.640625 2416.464844 476.726562 2413.773438 C 475.808594 2411.082031 474.550781 2407.957031 473.042969 2404.523438 C 470.03125 2397.660156 466.058594 2389.585938 462.085938 2381.867188 C 454.261719 2366.652344 446.667969 2353.167969 446.441406 2352.765625 L 423.167969 2221.058594 C 422.839844 2219.230469 421.09375 2218.019531 419.265625 2218.339844 Z M 419.265625 2218.339844 "/>
<path fill-rule="nonzero" fill="rgb(100%, 65.039062%, 51.756287%)" fill-opacity="1" d="M 507.316406 2200.730469 C 505.464844 2200.929688 504.128906 2202.601562 504.335938 2204.449219 C 504.335938 2204.449219 517.222656 2318.054688 521.914062 2356.753906 C 524.242188 2375.957031 524.382812 2386.734375 522.308594 2393.742188 C 520.230469 2400.75 516.027344 2404.695312 507.933594 2411.054688 C 493.433594 2422.445312 475.542969 2410.875 475.542969 2410.875 C 473.980469 2409.875 471.902344 2410.324219 470.898438 2411.882812 C 469.894531 2413.445312 470.347656 2415.523438 471.90625 2416.527344 C 471.90625 2416.527344 493.800781 2430.726562 512.09375 2416.347656 C 520.394531 2409.828125 526.183594 2404.421875 528.792969 2395.617188 C 531.402344 2386.816406 530.976562 2375.355469 528.613281 2355.910156 C 523.9375 2317.3125 511.039062 2203.691406 511.039062 2203.691406 C 510.835938 2201.839844 509.167969 2200.5 507.3125 2200.710938 Z M 507.316406 2200.730469 "/>
<path fill-rule="nonzero" fill="rgb(100%, 65.039062%, 51.756287%)" fill-opacity="1" d="M 643.972656 2311.390625 C 629.957031 2320.949219 620.3125 2339.625 612.328125 2358.550781 C 604.34375 2377.476562 598.125 2396.898438 592.5625 2407.460938 C 589.972656 2412.386719 587.855469 2413.390625 585.59375 2413.335938 C 583.332031 2413.265625 579.996094 2411.519531 576.480469 2408.207031 C 569.445312 2401.582031 562.09375 2389.71875 557.457031 2381.601562 C 553.464844 2374.621094 554.933594 2367.121094 557.636719 2360.917969 C 560.332031 2354.710938 564.078125 2350.355469 564.078125 2350.355469 C 565.292969 2348.960938 565.15625 2346.84375 563.773438 2345.621094 C 562.378906 2344.40625 560.265625 2344.542969 559.039062 2345.925781 C 559.039062 2345.925781 554.613281 2350.933594 551.457031 2358.199219 C 548.296875 2365.464844 546.253906 2375.523438 551.636719 2384.933594 C 556.367188 2393.214844 563.648438 2405.394531 571.839844 2413.117188 C 575.9375 2416.976562 580.371094 2419.957031 585.425781 2420.085938 C 590.484375 2420.21875 595.269531 2416.820312 598.53125 2410.617188 C 604.683594 2398.929688 610.734375 2379.6875 618.5625 2361.136719 C 626.386719 2342.585938 636.046875 2324.964844 647.792969 2316.957031 C 649.335938 2315.90625 649.730469 2313.804688 648.671875 2312.269531 C 647.621094 2310.726562 645.519531 2310.332031 643.980469 2311.390625 Z M 643.972656 2311.390625 "/>
<path fill-rule="nonzero" fill="rgb(100%, 65.039062%, 51.756287%)" fill-opacity="1" d="M 343.050781 2239.425781 C 341.21875 2239.792969 340.039062 2241.585938 340.421875 2243.414062 C 340.421875 2243.414062 345.988281 2270.914062 351.992188 2299.90625 C 354.992188 2314.40625 358.128906 2329.296875 360.714844 2341.28125 C 363.296875 2353.265625 365.265625 2362.136719 366.28125 2365.519531 C 367.390625 2369.21875 370.121094 2374.285156 373.730469 2380.507812 C 377.339844 2386.726562 381.800781 2393.867188 386.132812 2400.625 C 394.800781 2414.140625 403.007812 2426.175781 403.007812 2426.175781 C 404.058594 2427.71875 406.160156 2428.109375 407.695312 2427.054688 C 409.238281 2426.003906 409.632812 2423.898438 408.574219 2422.363281 C 408.574219 2422.363281 400.394531 2410.40625 391.789062 2396.988281 C 387.484375 2390.277344 383.085938 2383.210938 379.558594 2377.132812 C 376.035156 2371.058594 373.371094 2365.699219 372.722656 2363.546875 C 371.980469 2361.070312 369.863281 2351.785156 367.289062 2339.835938 C 364.710938 2327.882812 361.609375 2313.039062 358.609375 2298.550781 C 352.609375 2269.574219 347.039062 2242.054688 347.039062 2242.054688 C 346.671875 2240.222656 344.878906 2239.042969 343.050781 2239.425781 Z M 343.050781 2239.425781 "/>
<path fill-rule="nonzero" fill="rgb(100%, 65.039062%, 51.756287%)" fill-opacity="1" d="M 279.5 2267.605469 C 277.71875 2268.148438 276.71875 2270.035156 277.265625 2271.8125 C 277.265625 2271.8125 285.773438 2299.648438 294.707031 2328.351562 C 299.175781 2342.703125 303.734375 2357.277344 307.417969 2368.71875 C 309.261719 2374.4375 310.875 2379.347656 312.152344 2383.09375 C 313.425781 2386.839844 314.207031 2389.132812 314.957031 2390.632812 C 316.167969 2393.058594 319.171875 2397.585938 323.417969 2403.867188 C 327.660156 2410.148438 332.984375 2417.828125 338.1875 2425.300781 C 348.589844 2440.246094 358.566406 2454.3125 358.566406 2454.3125 C 359.644531 2455.824219 361.742188 2456.175781 363.253906 2455.101562 C 364.765625 2454.023438 365.121094 2451.925781 364.046875 2450.410156 C 364.046875 2450.410156 354.09375 2436.359375 343.710938 2421.441406 C 338.519531 2413.984375 333.238281 2406.332031 329.027344 2400.097656 C 324.816406 2393.863281 321.507812 2388.695312 320.960938 2387.605469 C 320.828125 2387.347656 319.808594 2384.628906 318.550781 2380.945312 C 317.296875 2377.261719 315.65625 2372.355469 313.820312 2366.65625 C 310.148438 2355.257812 305.570312 2340.675781 301.109375 2326.335938 C 292.183594 2297.652344 283.710938 2269.839844 283.710938 2269.839844 C 283.164062 2268.058594 281.28125 2267.058594 279.5 2267.605469 Z M 279.5 2267.605469 "/>
<path fill-rule="nonzero" fill="rgb(87.889099%, 99.21875%, 42.358398%)" fill-opacity="1" d="M 3406.230469 377.128906 C 3406.230469 454.738281 3343.320312 517.660156 3265.699219 517.660156 C 3188.078125 517.660156 3125.160156 454.738281 3125.160156 377.128906 C 3125.160156 299.511719 3188.078125 236.589844 3265.699219 236.589844 C 3343.320312 236.589844 3406.230469 299.511719 3406.230469 377.128906 Z M 3406.230469 377.128906 "/>
<path fill-rule="nonzero" fill="rgb(100%, 100%, 100%)" fill-opacity="1" d="M 832.097656 2232.191406 C 829.023438 2228.535156 826.398438 2224.851562 824.164062 2221.148438 C 821.933594 2217.460938 820.097656 2213.75 818.621094 2210.050781 C 817.148438 2206.359375 816.03125 2202.679688 815.226562 2199.019531 C 814.417969 2195.359375 813.917969 2191.730469 813.695312 2188.140625 C 813.472656 2184.550781 813.515625 2181.011719 813.785156 2177.53125 C 814.058594 2174.050781 814.554688 2170.621094 815.234375 2167.28125 C 815.914062 2163.941406 816.78125 2160.679688 817.785156 2157.519531 C 818.789062 2154.351562 819.933594 2151.269531 821.171875 2148.320312 C 823.648438 2142.410156 826.507812 2136.960938 829.40625 2132.109375 C 832.304688 2127.25 835.234375 2123 837.859375 2119.480469 C 843.109375 2112.441406 847.125 2108.371094 847.125 2108.371094 C 847.125 2108.371094 822.28125 2098.441406 810.6875 2098.441406 C 799.097656 2098.441406 507.691406 2204.089844 507.691406 2204.089844 C 445.675781 2268.328125 528.300781 2350.183594 528.300781 2350.183594 C 528.300781 2350.183594 808.199219 2277.3125 829.730469 2255.78125 C 851.261719 2234.25 832.097656 2232.191406 832.097656 2232.191406 Z M 832.097656 2232.191406 "/>
<path fill-rule="nonzero" fill="rgb(11.767578%, 11.767578%, 11.767578%)" fill-opacity="1" d="M 1980.609375 1506.960938 C 1919.570312 1507.410156 1842.769531 1528.398438 1753.910156 1561.820312 C 1573.378906 1629.730469 1333.230469 1806.949219 1268.628906 1861.601562 C 1204.039062 1916.261719 847.125 2108.371094 847.125 2108.371094 C 847.125 2108.371094 843.113281 2112.441406 837.859375 2119.480469 C 835.234375 2123 832.304688 2127.25 829.40625 2132.109375 C 826.511719 2136.960938 823.652344 2142.410156 821.175781 2148.320312 C 819.933594 2151.269531 818.789062 2154.351562 817.789062 2157.519531 C 816.785156 2160.679688 815.917969 2163.941406 815.238281 2167.28125 C 814.558594 2170.621094 814.058594 2174.050781 813.789062 2177.53125 C 813.511719 2181.011719 813.472656 2184.550781 813.699219 2188.140625 C 813.921875 2191.730469 814.421875 2195.359375 815.226562 2199.019531 C 816.035156 2202.679688 817.148438 2206.359375 818.625 2210.050781 C 820.101562 2213.75 821.9375 2217.460938 824.167969 2221.148438 C 826.398438 2224.851562 829.027344 2228.535156 832.101562 2232.191406 C 832.101562 2232.191406 1021.820312 2168.949219 1108.480469 2227.507812 C 1195.140625 2286.066406 1293.519531 2288.410156 1431.710938 2257.960938 C 1569.910156 2227.511719 1764.308594 2115.089844 1883.769531 2014.371094 C 2003.21875 1913.648438 2164.660156 1682.71875 2114.96875 1580.039062 C 2090.128906 1528.691406 2044.988281 1507.160156 1983.5 1506.960938 C 1982.539062 1506.960938 1981.570312 1506.960938 1980.609375 1506.960938 Z M 1951.960938 1564.351562 C 2037.101562 1564.410156 2086.359375 1601.96875 2064.121094 1691.128906 C 1993.851562 1941.75 1663.601562 2122.109375 1438.738281 2197.058594 C 1438.738281 2197.058594 1089.738281 2328.226562 1185.769531 2082.289062 C 1262.011719 1821.808594 1723.921875 1567.339844 1947.878906 1564.371094 C 1949.25 1564.371094 1950.609375 1564.371094 1951.960938 1564.371094 Z M 1156.011719 2017.28125 C 1156.011719 2017.28125 1091.421875 2105.070312 1111.300781 2164.691406 C 1111.300781 2164.691406 1008.601562 2123.28125 914.199219 2143.160156 C 914.199219 2143.160156 1116.269531 2052.058594 1156.011719 2017.28125 Z M 1156.011719 2017.28125 "/>
<path fill-rule="nonzero" fill="rgb(100%, 100%, 100%)" fill-opacity="1" d="M 1478.898438 1782.898438 C 1477.519531 1782.039062 1475.699219 1782.449219 1474.828125 1783.820312 L 1247.890625 2143.210938 C 1247 2144.609375 1247.441406 2146.460938 1248.851562 2147.328125 C 1250.230469 2148.191406 1252.050781 2147.78125 1252.929688 2146.410156 L 1479.820312 1786.980469 C 1480.691406 1785.589844 1480.28125 1783.78125 1478.910156 1782.898438 Z M 1478.898438 1782.898438 "/>
<path fill-rule="nonzero" fill="rgb(100%, 100%, 100%)" fill-opacity="1" d="M 1570.898438 1716.320312 C 1570.148438 1716.550781 1569.519531 1717.050781 1569.140625 1717.730469 L 1310.738281 2183.140625 C 1309.949219 2184.578125 1310.480469 2186.378906 1311.921875 2187.171875 C 1313.359375 2187.960938 1315.160156 2187.429688 1315.949219 2185.988281 L 1574.320312 1720.621094 C 1575.140625 1719.179688 1574.628906 1717.351562 1573.179688 1716.550781 C 1572.480469 1716.171875 1571.660156 1716.089844 1570.898438 1716.320312 Z M 1570.898438 1716.320312 "/>
<path fill-rule="nonzero" fill="rgb(100%, 100%, 100%)" fill-opacity="1" d="M 1734.769531 1673.199219 C 1733.160156 1672.78125 1731.519531 1673.769531 1731.128906 1675.390625 L 1631.78125 2074.53125 C 1631.378906 2076.121094 1632.339844 2077.71875 1633.921875 2078.121094 C 1635.519531 2078.550781 1637.160156 2077.578125 1637.558594 2075.980469 L 1736.921875 1676.839844 C 1737.339844 1675.238281 1736.378906 1673.601562 1734.769531 1673.199219 Z M 1734.769531 1673.199219 "/>
<path fill-rule="nonzero" fill="rgb(100%, 100%, 100%)" fill-opacity="1" d="M 1818.96875 1641.691406 C 1817.328125 1641.421875 1815.789062 1642.539062 1815.550781 1644.179688 L 1764.21875 1983.71875 C 1763.980469 1985.339844 1765.101562 1986.851562 1766.71875 1987.089844 C 1768.339844 1987.339844 1769.859375 1986.21875 1770.101562 1984.601562 L 1821.421875 1645.058594 C 1821.660156 1643.449219 1820.570312 1641.949219 1818.96875 1641.691406 Z M 1818.96875 1641.691406 "/>
<path fill-rule="nonzero" fill="rgb(100%, 100%, 100%)" fill-opacity="1" d="M 1873.570312 1606.929688 C 1871.949219 1606.691406 1870.441406 1607.808594 1870.199219 1609.429688 L 1838.730469 1833.039062 C 1838.519531 1834.660156 1839.648438 1836.148438 1841.269531 1836.371094 C 1842.890625 1836.609375 1844.410156 1835.5 1844.648438 1833.871094 L 1876.121094 1610.261719 C 1876.328125 1608.640625 1875.191406 1607.148438 1873.570312 1606.929688 Z M 1873.570312 1606.929688 "/>
<path fill-rule="nonzero" fill="rgb(100%, 100%, 100%)" fill-opacity="1" d="M 1979.46875 1625.429688 L 1295.441406 1971.578125 C 1293.980469 1972.320312 1293.390625 1974.109375 1294.128906 1975.570312 C 1294.859375 1977.03125 1296.648438 1977.621094 1298.109375 1976.878906 L 1982.140625 1630.730469 C 1983.601562 1629.988281 1984.191406 1628.210938 1983.449219 1626.738281 C 1982.71875 1625.28125 1980.929688 1624.691406 1979.46875 1625.429688 Z M 1979.46875 1625.429688 "/>
<path fill-rule="nonzero" fill="rgb(100%, 100%, 100%)" fill-opacity="1" d="M 1660.441406 1714.699219 C 1659.691406 1714.441406 1658.871094 1714.488281 1658.160156 1714.839844 L 1378.269531 1855.609375 C 1376.808594 1856.351562 1376.21875 1858.140625 1376.960938 1859.601562 C 1377.679688 1861.089844 1379.46875 1861.691406 1380.949219 1860.960938 L 1660.828125 1720.140625 C 1662.300781 1719.410156 1662.890625 1717.621094 1662.148438 1716.160156 C 1661.789062 1715.46875 1661.179688 1714.949219 1660.441406 1714.710938 Z M 1660.441406 1714.699219 "/>
<path fill-rule="nonzero" fill="rgb(100%, 100%, 100%)" fill-opacity="1" d="M 1854.03125 1928.320312 L 1512.871094 2035.960938 C 1511.308594 2036.460938 1510.449219 2038.128906 1510.941406 2039.691406 C 1511.421875 2041.269531 1513.089844 2042.148438 1514.671875 2041.660156 L 1855.820312 1933.980469 C 1857.390625 1933.480469 1858.25 1931.808594 1857.75 1930.25 C 1857.25 1928.691406 1855.589844 1927.828125 1854.03125 1928.320312 Z M 1854.03125 1928.320312 "/>
<path fill-rule="nonzero" fill="rgb(100%, 100%, 100%)" fill-opacity="1" d="M 1926.960938 1835.578125 L 1378.761719 2001.210938 C 1377.179688 2001.671875 1376.28125 2003.320312 1376.738281 2004.890625 C 1377.21875 2006.46875 1378.890625 2007.351562 1380.46875 2006.859375 L 1928.671875 1841.230469 C 1930.21875 1840.761719 1931.101562 1839.109375 1930.640625 1837.558594 C 1930.160156 1836 1928.519531 1835.121094 1926.960938 1835.578125 Z M 1926.960938 1835.578125 "/>
<path fill-rule="nonzero" fill="rgb(100%, 65.039062%, 51.756287%)" fill-opacity="1" d="M 2345.179688 1209.039062 C 2345.179688 1209.039062 2376.648438 1170.949219 2389.898438 1175.921875 C 2403.148438 1180.890625 2403.148438 1227.261719 2403.148438 1227.261719 C 2403.148438 1227.261719 2379.96875 1204.070312 2345.179688 1209.039062 Z M 2345.179688 1209.039062 "/>
<path fill-rule="nonzero" fill="rgb(100%, 100%, 100%)" fill-opacity="1" d="M 3131.75 381.28125 C 3130.109375 381.371094 3128.859375 382.761719 3128.941406 384.390625 C 3129.03125 386.03125 3130.421875 387.28125 3132.050781 387.199219 C 3132.050781 387.199219 3166.339844 385.601562 3205.550781 397.851562 C 3244.761719 410.101562 3288.46875 435.980469 3307.980469 491.25 C 3308.53125 492.78125 3310.210938 493.578125 3311.75 493.039062 C 3313.28125 492.488281 3314.078125 490.808594 3313.539062 489.269531 C 3293.300781 431.921875 3247.601562 404.78125 3207.308594 392.191406 C 3167.011719 379.609375 3131.75 381.28125 3131.75 381.28125 Z M 3131.75 381.28125 "/>
<path fill-rule="nonzero" fill="rgb(100%, 100%, 100%)" fill-opacity="1" d="M 3273.878906 236.390625 C 3272.71875 237.550781 3272.71875 239.429688 3273.878906 240.589844 C 3273.878906 240.589844 3295.449219 262.160156 3320.769531 284.988281 C 3333.441406 296.410156 3347.070312 308.140625 3359.429688 317.691406 C 3371.800781 327.230469 3382.71875 334.609375 3390.988281 337.371094 C 3392.550781 337.890625 3394.238281 337.050781 3394.761719 335.480469 C 3395.25 333.929688 3394.410156 332.269531 3392.871094 331.75 C 3386.230469 329.539062 3375.191406 322.390625 3363.019531 313 C 3350.859375 303.601562 3337.359375 291.960938 3324.761719 280.609375 C 3299.570312 257.898438 3278.089844 236.390625 3278.089844 236.390625 C 3276.929688 235.21875 3275.039062 235.21875 3273.878906 236.390625 Z M 3273.878906 236.390625 "/>
</svg>
